Coordinates
version=1
nRows=19
nColumns=24
inDegrees=yes

Units are S.I. units (second, meters, Newtons, ...)
Angles are in degrees.

endheader
time	pelvis_tilt	pelvis_list	pelvis_rotation	pelvis_tx	pelvis_ty	pelvis_tz	hip_flexion_r	hip_adduction_r	hip_rotation_r	knee_angle_r	ankle_angle_r	subtalar_angle_r	mtp_angle_r	hip_flexion_l	hip_adduction_l	hip_rotation_l	knee_angle_l	ankle_angle_l	subtalar_angle_l	mtp_angle_l	lumbar_extension	lumbar_bending	lumbar_rotation
      0.94566667	     -2.59479096	      1.58438513	     -2.03269004	     -0.11549851	      1.01299704	      0.27436491	     -9.08151955	      0.29089035	      2.16806514	    -16.73015746	      5.58936793	     -5.02609006	     13.79041433	     16.52419240	      1.57245316	     -1.54856940	      4.76381446	      1.84132901	     -1.98871967	      1.95779087	    -12.23832572	      2.78150027	      6.45042036
      0.94983333	     -2.60682692	      1.58599644	     -2.05385611	     -0.10982808	      1.01225336	      0.27391979	     -9.20557024	      0.22595229	      2.02422802	    -17.09532542	      5.35176296	     -4.99300482	     13.88019130	     16.51506013	      1.64953037	     -1.38931096	      4.89299242	      1.73363947	     -1.84743313	      1.97760249	    -12.15469903	      2.78373614	      6.45792783
      0.95400000	     -2.60587180	      1.62316425	     -2.06777155	     -0.10414898	      1.01149647	      0.27343040	     -9.30514718	      0.11199366	      1.79949537	    -17.54277992	      5.16736143	     -4.82966951	     14.01020331	     16.51211101	      1.76919752	     -1.20697958	      4.90618491	      1.61782026	     -1.77336685	      2.00493184	    -12.09504625	      2.74970278	      6.43527449
      0.95816667	     -2.56242403	      1.67699086	     -2.09004304	     -0.09844984	      1.01077241	      0.27290977	     -9.40851442	     -0.04001327	      1.49909042	    -18.07117744	      5.05367911	     -4.51696582	     20.33139727	     16.44200530	      1.90783902	     -0.88851237	      4.88885358	      1.42945707	     -1.98134314	      3.31104128	    -12.07571194	      2.67790216	      6.32634167
      0.96233333	     -2.59291842	      1.74963796	     -2.11684656	     -0.09271583	      1.00998476	      0.27241360	     -9.42967071	     -0.20062932	      1.27065996	    -18.60572749	      4.86999586	     -4.24654435	     20.38795109	     16.48521771	      2.06006516	     -0.65719885	      4.72734737	      1.22636866	     -2.01446344	      3.31520398	    -11.96426483	      2.59196338	      6.28596190
      0.96650000	     -2.57002518	      1.82816711	     -2.12829287	     -0.08697321	      1.00926149	      0.27187022	     -9.48361519	     -0.37505390	      0.98155529	    -19.19307227	      4.72374821	     -3.93916139	     20.52860659	     16.47355048	      2.22789893	     -0.33921522	      4.49573186	      0.98188038	     -2.25384877	      3.33431798	    -11.91594162	      2.51432440	      6.21072744
      0.97066667	     -2.56509093	      1.92449336	     -2.13091361	     -0.08120859	      1.00851443	      0.27132230	     -9.50343358	     -0.56542402	      0.69356795	    -19.80659205	      4.52856274	     -3.68051455	     20.75482076	     16.49176445	      2.41591244	      0.01861737	      4.17999736	      0.68624948	     -2.58356458	      3.36941506	    -11.84070864	      2.40043116	      6.13031278
      0.97483333	     -2.49041221	      2.01285324	     -2.09975578	     -0.07538159	      1.00790705	      0.27075544	     -9.63405141	     -0.73327089	      0.43113390	    -20.33570314	      4.16424984	     -3.64635094	     22.45056657	     16.40828630	      2.60598439	      0.53412434	      3.86256512	      0.24707180	     -3.13298984	      3.66627603	    -11.85468706	      2.29211913	      6.08347433
      0.97900000	     -2.48906722	      2.16704541	     -2.11287422	     -0.06959176	      1.00716022	      0.27017475	     -9.58820885	     -1.00241177	      0.10743056	    -21.06617817	      3.96982176	     -3.27221854	     22.66460214	     16.48328185	      2.85844619	      0.77576052	      3.32485195	      0.01790513	     -3.36363749	      3.70102304	    -11.76948401	      2.11425562	      5.95764703
      0.98316667	     -2.49621468	      2.29444814	     -2.09206644	     -0.06378821	      1.00643045	      0.26957128	     -9.54359060	     -1.22644762	     -0.18881833	    -21.76687016	      3.65295549	     -3.07664606	     22.97914375	     16.54625461	      3.09087163	      1.21277279	      2.78839300	     -0.36233796	     -3.89085143	      3.74827540	    -11.68225222	      1.97610999	      5.85560419
      0.98733333	     -2.43288198	      2.45311574	     -2.06632304	     -0.05794160	      1.00581351	      0.26894524	     -9.56384539	     -1.49180320	     -0.51318699	    -22.48456366	      3.29686793	     -2.87861077	     23.40964449	     16.53133847	      3.36477416	      1.64953890	      2.21610340	     -0.78624338	     -4.48959524	      3.81011758	    -11.67370837	      1.79059944	      5.74176796
      0.99150000	     -2.39399891	      2.59442348	     -2.04934343	     -0.05209436	      1.00519085	      0.26836363	     -9.55240341	     -1.72822662	     -0.76850117	    -23.18015364	      2.73084203	     -2.93807307	     29.13999727	     16.57142749	      3.61735481	      2.01900971	      1.54597590	     -1.16967414	     -5.05861757	      4.63518172	    -11.63971610	      1.61029072	      5.67298554
      0.99566667	     -2.36803107	      2.76527884	     -2.00422588	     -0.04627445	      1.00451911	      0.26768566	     -9.47467435	     -2.01006523	     -1.11018387	    -24.00193794	      2.32112227	     -2.73387005	     29.21855256	     16.64687975	      3.91444888	      2.40485447	      0.80714179	     -1.51933577	     -5.59035021	      4.63218089	    -11.58875866	      1.42337211	      5.53554913
      0.99983333	     -2.33891037	      2.93515644	     -1.96509806	     -0.04045151	      1.00388127	      0.26702981	     -9.38165350	     -2.28835710	     -1.42192049	    -24.84596420	      1.82013797	     -2.62955658	     29.38276830	     16.71614428	      4.21111957	      2.81464750	      0.04823476	     -1.91070187	     -6.26622088	      4.62937493	    -11.53870157	      1.21937376	      5.41278333
      1.00400000	     -2.27014267	      3.12783004	     -1.95093467	     -0.03460845	      1.00332715	      0.26638441	     -9.31395434	     -2.59924273	     -1.69403006	    -25.70328034	      1.23120895	     -2.52916612	     29.80414132	     16.73709272	      4.53308310	      3.21156257	     -0.72630292	     -2.27864388	     -7.04633558	      4.62435342	    -11.54717755	      1.00278602	      5.28336764
      1.00816667	     -2.22755587	      3.28608536	     -1.87080110	     -0.02881032	      1.00273778	      0.26566793	     -9.20754216	     -2.86015000	     -2.01785354	    -26.57339969	      0.55959097	     -2.58958099	     33.45652314	     16.83057988	      4.83783565	      3.64026072	     -1.61253582	     -2.54958491	     -7.70889430	      4.55411756	    -11.53274459	      0.80700289	      5.23659955
      1.01233333	     -2.22550171	      3.49972220	     -1.85549811	     -0.02302455	      1.00210392	      0.26501615	     -8.98288277	     -3.20193527	     -2.29741964	    -27.58110121	     -0.07526716	     -2.52776442	     33.55135712	     16.97766258	      5.18013605	      3.85731774	     -2.52259703	     -2.82996011	     -8.20058065	      4.54159383	    -11.45393155	      0.57229772	      5.06122171
      1.01650000	     -2.13028119	      3.70543132	     -1.81681706	     -0.01721870	      1.00162700	      0.26432166	     -8.86801784	     -3.53524587	     -2.58848872	    -28.55500066	     -0.81110352	     -2.49672957	     34.04317355	     16.99361125	      5.53418172	      4.24177111	     -3.39183492	     -3.12202628	     -9.00293959	      4.47771482	    -11.50144400	      0.32415523	      4.92637546
      1.02066667	     -2.15231767	      3.88786214	     -1.78862804	     -0.01149957	      1.00098192	      0.26365275	     -8.56403115	     -3.84130556	     -2.83194217	    -29.63457177	     -1.58422765	     -2.53809923	     34.23725793	     17.19550496	      5.85188813	      4.46612323	     -4.39594009	     -3.20267591	     -9.46487730	      4.44908662	    -11.41149248	      0.12494688	      4.82788254
